<svg xmlns="http://www.w3.org/2000/svg" xmlns:xlink="http://www.w3.org/1999/xlink" width="500" zoomAndPan="magnify" viewBox="0 0 375 374.999991" height="500" preserveAspectRatio="xMidYMid meet" version="1.0"><defs><clipPath id="f981673631"><path d="M 20.730469 21.492188 L 353 21.492188 L 353 353.742188 L 20.730469 353.742188 Z M 20.730469 21.492188 " clip-rule="nonzero"/></clipPath></defs><g clip-path="url(#f981673631)"><path fill="#24b9d4" d="M 331.589844 231.363281 C 317.570312 217.417969 301.875 201.78125 287.390625 187.316406 C 287.390625 187.316406 319.136719 155.601562 332.167969 142.484375 C 342.617188 131.976562 349.441406 118.839844 351.898438 104.507812 C 354.160156 91.277344 352.601562 77.652344 347.386719 65.109375 C 342.171875 52.570312 333.613281 41.929688 322.628906 34.199219 C 310.746094 25.847656 296.625 21.492188 281.796875 21.492188 L 91.910156 21.492188 C 52.753906 21.492188 20.886719 53.277344 20.875 92.433594 L 20.792969 282.410156 C 20.785156 297.257812 25.210938 311.378906 33.59375 323.285156 C 41.339844 334.277344 52.070312 342.832031 64.628906 348.039062 C 73.410156 351.679688 82.710938 353.519531 92.042969 353.519531 C 96.0625 353.519531 100.089844 353.171875 104.074219 352.480469 C 118.417969 349.996094 131.554688 343.136719 142.058594 332.632812 L 235.480469 239.34375 C 248.648438 252.515625 262.808594 266.351562 275.800781 279.484375 L 257.171875 279.484375 L 183.789062 352.667969 L 281.46875 352.667969 C 296.335938 352.667969 310.488281 348.269531 322.390625 339.863281 C 333.382812 332.105469 341.945312 321.378906 347.136719 308.792969 C 352.328125 296.210938 353.847656 282.585938 351.527344 269.332031 C 349.027344 254.984375 342.128906 241.851562 331.589844 231.363281 Z M 94.171875 276.925781 L 94.246094 94.902344 L 276.167969 94.902344 C 273.851562 97.015625 94.171875 276.925781 94.171875 276.925781 Z M 94.171875 276.925781 " fill-opacity="1" fill-rule="nonzero"/></g></svg>